<svg width="63" height="46" viewBox="0 0 63 46" fill="none" xmlns="http://www.w3.org/2000/svg">
<g id="Quote icon">
<path id="&#226;&#128;&#156;" d="M0.5 30.4754C0.5 38.8003 6.61624 45.766 13.7519 45.766C20.7176 45.766 25.9844 40.4993 25.9844 33.7034C25.9844 26.3979 19.5283 21.471 11.0335 20.9613C13.2422 15.5246 16.9799 9.74815 24.2854 2.44263L22.0768 0.233994C7.97541 8.21909 0.5 20.2817 0.5 30.4754ZM36.8577 30.4754C36.8577 38.8003 42.9739 45.766 50.1095 45.766C57.0753 45.766 62.342 40.4993 62.342 33.7034C62.342 26.3979 55.886 21.471 47.3912 20.9613C49.5999 15.5246 53.3376 9.74815 60.6431 2.44263L58.4344 0.233994C44.3331 8.21909 36.8577 20.2817 36.8577 30.4754Z" fill="#2D2D2D"/>
</g>
</svg>
